<svg width="1195" height="1068" viewBox="0 0 1195 1068" fill="none" xmlns="http://www.w3.org/2000/svg">
<path d="M590.546 1067.92C707.907 1067.92 803.046 1057.97 803.046 1045.7C803.046 1033.43 707.907 1023.48 590.546 1023.48C473.186 1023.48 378.046 1033.43 378.046 1045.7C378.046 1057.97 473.186 1067.92 590.546 1067.92Z" fill="#B0FA8D"/>
<path opacity="0.5" d="M590.546 1067.92C707.907 1067.92 803.046 1057.97 803.046 1045.7C803.046 1033.43 707.907 1023.48 590.546 1023.48C473.186 1023.48 378.046 1033.43 378.046 1045.7C378.046 1057.97 473.186 1067.92 590.546 1067.92Z" fill="white"/>
<path d="M1070.74 862.089V828.173H1032.91V762.367H978.546V495.089H926.546V656.645H879.268V598.812H815.463V748.395H789.463V796.256H728.018V778.312H746.907V768.339H668.907V780.312H678.379V832.173H638.185V734.423H496.38V804.228H394.713V752.367H356.907V810.228H276.546V704.506H243.463V668.617H184.352V832.173H125.268V868.062H87.4629V977.756H1144.02V862.089H1070.74Z" stroke="#2E353A" stroke-miterlimit="10"/>
<path d="M207.602 704.034H194.824V716.811H207.602V704.034Z" fill="#2E353A"/>
<path d="M234.213 704.034H221.435V716.811H234.213V704.034Z" fill="#2E353A"/>
<path d="M207.602 730.673H194.824V743.45H207.602V730.673Z" fill="#2E353A"/>
<path d="M234.213 730.673H221.435V743.45H234.213V730.673Z" fill="#2E353A"/>
<path d="M262.963 730.673H250.185V743.45H262.963V730.673Z" fill="#2E353A"/>
<path d="M262.963 757.284H250.185V770.062H262.963V757.284Z" fill="#2E353A"/>
<path d="M262.963 783.923H250.185V796.701H262.963V783.923Z" fill="#2E353A"/>
<path d="M262.963 810.534H250.185V823.311H262.963V810.534Z" fill="#2E353A"/>
<path d="M262.963 837.173H250.185V849.95H262.963V837.173Z" fill="#2E353A"/>
<path d="M262.963 863.812H250.185V876.589H262.963V863.812Z" fill="#2E353A"/>
<path d="M207.602 757.284H194.824V770.062H207.602V757.284Z" fill="#2E353A"/>
<path d="M234.213 757.284H221.435V770.062H234.213V757.284Z" fill="#2E353A"/>
<path d="M207.602 783.923H194.824V796.701H207.602V783.923Z" fill="#2E353A"/>
<path d="M234.213 783.923H221.435V796.701H234.213V783.923Z" fill="#2E353A"/>
<path d="M207.602 810.534H194.824V823.311H207.602V810.534Z" fill="#2E353A"/>
<path d="M234.213 810.534H221.435V823.311H234.213V810.534Z" fill="#2E353A"/>
<path d="M207.602 837.173H194.824V849.95H207.602V837.173Z" fill="#2E353A"/>
<path d="M149.018 852.089H136.241V864.867H149.018V852.089Z" fill="#2E353A"/>
<path d="M333.268 823.312H320.491V836.089H333.268V823.312Z" fill="#2E353A"/>
<path d="M358.824 823.312H346.046V836.089H358.824V823.312Z" fill="#2E353A"/>
<path d="M947.824 510.173H935.046V522.951H947.824V510.173Z" fill="#2E353A"/>
<path d="M963.796 510.173H951.018V522.951H963.796V510.173Z" fill="#2E353A"/>
<path d="M947.824 536.812H935.046V549.589H947.824V536.812Z" fill="#2E353A"/>
<path d="M963.796 536.812H951.018V549.589H963.796V536.812Z" fill="#2E353A"/>
<path d="M947.824 563.451H935.046V576.228H947.824V563.451Z" fill="#2E353A"/>
<path d="M963.796 563.451H951.018V576.228H963.796V563.451Z" fill="#2E353A"/>
<path d="M947.824 590.062H935.046V602.839H947.824V590.062Z" fill="#2E353A"/>
<path d="M963.796 590.062H951.018V602.839H963.796V590.062Z" fill="#2E353A"/>
<path d="M947.824 616.701H935.046V629.478H947.824V616.701Z" fill="#2E353A"/>
<path d="M963.796 616.701H951.018V629.478H963.796V616.701Z" fill="#2E353A"/>
<path d="M947.824 643.312H935.046V656.089H947.824V643.312Z" fill="#2E353A"/>
<path d="M963.796 643.312H951.018V656.089H963.796V643.312Z" fill="#2E353A"/>
<path d="M947.824 669.95H935.046V682.728H947.824V669.95Z" fill="#2E353A"/>
<path d="M963.796 669.95H951.018V682.728H963.796V669.95Z" fill="#2E353A"/>
<path d="M947.824 696.589H935.046V709.367H947.824V696.589Z" fill="#2E353A"/>
<path d="M963.796 696.589H951.018V709.367H963.796V696.589Z" fill="#2E353A"/>
<path d="M947.824 723.2H935.046V735.978H947.824V723.2Z" fill="#2E353A"/>
<path d="M963.796 723.2H951.018V735.978H963.796V723.2Z" fill="#2E353A"/>
<path d="M839.185 723.2H826.407V735.978H839.185V723.2Z" fill="#2E353A"/>
<path d="M866.88 723.2H854.102V735.978H866.88V723.2Z" fill="#2E353A"/>
<path d="M894.574 723.2H881.796V735.978H894.574V723.2Z" fill="#2E353A"/>
<path d="M839.185 780.728H826.407V793.506H839.185V780.728Z" fill="#2E353A"/>
<path d="M866.88 780.728H854.102V793.506H866.88V780.728Z" fill="#2E353A"/>
<path d="M894.574 780.728H881.796V793.506H894.574V780.728Z" fill="#2E353A"/>
<path d="M839.185 838.228H826.407V851.006H839.185V838.228Z" fill="#2E353A"/>
<path d="M866.88 838.228H854.102V851.006H866.88V838.228Z" fill="#2E353A"/>
<path d="M894.574 838.228H881.796V851.006H894.574V838.228Z" fill="#2E353A"/>
<path d="M947.824 749.839H935.046V762.617H947.824V749.839Z" fill="#2E353A"/>
<path d="M963.796 749.839H951.018V762.617H963.796V749.839Z" fill="#2E353A"/>
<path d="M947.824 776.45H935.046V789.228H947.824V776.45Z" fill="#2E353A"/>
<path d="M963.796 776.45H951.018V789.228H963.796V776.45Z" fill="#2E353A"/>
<path d="M947.824 803.089H935.046V815.867H947.824V803.089Z" fill="#2E353A"/>
<path d="M963.796 803.089H951.018V815.867H963.796V803.089Z" fill="#2E353A"/>
<path d="M990.435 776.45H977.657V789.228H990.435V776.45Z" fill="#2E353A"/>
<path d="M1020.27 776.45H1007.49V789.228H1020.27V776.45Z" fill="#2E353A"/>
<path d="M990.435 802.034H977.657V814.811H990.435V802.034Z" fill="#2E353A"/>
<path d="M1020.27 802.034H1007.49V814.811H1020.27V802.034Z" fill="#2E353A"/>
<path d="M990.435 827.589H977.657V840.367H990.435V827.589Z" fill="#2E353A"/>
<path d="M1020.27 827.589H1007.49V840.367H1020.27V827.589Z" fill="#2E353A"/>
<path d="M990.435 853.145H977.657V865.923H990.435V853.145Z" fill="#2E353A"/>
<path d="M1020.27 853.145H1007.49V865.923H1020.27V853.145Z" fill="#2E353A"/>
<path d="M947.824 829.728H935.046V842.506H947.824V829.728Z" fill="#2E353A"/>
<path d="M963.796 829.728H951.018V842.506H963.796V829.728Z" fill="#2E353A"/>
<path d="M947.824 856.339H935.046V869.117H947.824V856.339Z" fill="#2E353A"/>
<path d="M963.796 856.339H951.018V869.117H963.796V856.339Z" fill="#2E353A"/>
<path d="M234.213 837.173H221.435V849.95H234.213V837.173Z" fill="#2E353A"/>
<path d="M207.602 863.812H194.824V876.589H207.602V863.812Z" fill="#2E353A"/>
<path d="M234.213 863.812H221.435V876.589H234.213V863.812Z" fill="#2E353A"/>
<path d="M207.602 890.423H194.824V903.2H207.602V890.423Z" fill="#2E353A"/>
<path d="M234.213 890.423H221.435V903.2H234.213V890.423Z" fill="#2E353A"/>
<path d="M207.602 917.062H194.824V929.839H207.602V917.062Z" fill="#2E353A"/>
<path d="M234.213 917.062H221.435V929.839H234.213V917.062Z" fill="#2E353A"/>
<path d="M907.352 925.062V977.756H800.852V872.978H907.352V915.673" stroke="#2E353A" stroke-miterlimit="10"/>
<path d="M1103.35 961.839V977.756H996.824V922.367H1018.82" stroke="#2E353A" stroke-miterlimit="10"/>
<path d="M1031.8 922.367H1103.35V953.201" stroke="#2E353A" stroke-miterlimit="10"/>
<path d="M318.324 922.367H393.991V977.756H287.463V922.367H308.213" stroke="#2E353A" stroke-miterlimit="10"/>
<path d="M151.685 922.367H161.796V977.756H122.38V922.367H143.741" stroke="#2E353A" stroke-miterlimit="10"/>
<path d="M862.602 872.978H845.574V977.756H862.602V872.978Z" stroke="#2E353A" stroke-miterlimit="10"/>
<path d="M730.241 887.228H713.518V859.534H769.963V887.228H745.407" stroke="#2E353A" stroke-miterlimit="10"/>
<path d="M431.268 840.367H366.296V863.812H431.268V840.367Z" stroke="#2E353A" stroke-miterlimit="10"/>
<path d="M403.574 840.367H397.185V977.756H403.574V840.367Z" stroke="#2E353A" stroke-miterlimit="10"/>
<path d="M602.879 5.78369C507.844 5.78369 416.7 43.5365 349.5 110.737C282.299 177.938 244.546 269.081 244.546 364.117C244.546 542.867 575.102 964.117 575.102 964.117H602.879C602.879 964.117 961.213 562.006 961.213 364.117C961.213 269.081 923.46 177.938 856.259 110.737C789.059 43.5365 697.915 5.78369 602.879 5.78369V5.78369ZM602.879 539.117C568.268 539.117 534.433 528.853 505.655 509.624C476.876 490.395 454.446 463.064 441.201 431.087C427.955 399.11 424.49 363.923 431.242 329.976C437.994 296.029 454.662 264.847 479.136 240.373C503.61 215.899 534.792 199.232 568.739 192.48C602.685 185.727 637.872 189.193 669.849 202.438C701.826 215.683 729.157 238.114 748.387 266.892C767.616 295.671 777.879 329.505 777.879 364.117C777.879 387.098 773.353 409.855 764.558 431.087C755.764 452.319 742.873 471.61 726.623 487.861C710.373 504.111 691.081 517.001 669.849 525.796C648.617 534.59 625.861 539.117 602.879 539.117V539.117Z" fill="#2E353A" stroke="#2E353A" stroke-linecap="round" stroke-linejoin="round"/>
<path d="M575.102 5.78369C480.066 5.78369 388.922 43.5365 321.722 110.737C254.521 177.938 216.768 269.081 216.768 364.117C216.768 562.006 575.102 964.117 575.102 964.117C575.102 964.117 933.435 562.006 933.435 364.117C933.435 269.081 895.682 177.938 828.482 110.737C761.281 43.5365 670.138 5.78369 575.102 5.78369V5.78369ZM575.102 539.117C540.49 539.117 506.656 528.853 477.877 509.624C449.098 490.395 426.668 463.064 413.423 431.087C400.178 399.11 396.712 363.923 403.464 329.976C410.217 296.029 426.884 264.847 451.358 240.373C475.832 215.899 507.014 199.232 540.961 192.48C574.908 185.727 610.094 189.193 642.071 202.438C674.048 215.683 701.38 238.114 720.609 266.892C739.838 295.671 750.102 329.505 750.102 364.117C750.102 410.53 731.664 455.042 698.845 487.861C666.027 520.68 621.515 539.117 575.102 539.117V539.117Z" fill="#B0FA8D" stroke="#2E353A" stroke-linecap="round" stroke-linejoin="round"/>
</svg>
